<mxfile host="Electron" modified="2023-12-05T03:55:31.238Z" agent="Mozilla/5.0 (X11; Linux x86_64) AppleWebKit/537.36 (KHTML, like Gecko) draw.io/22.1.2 Chrome/114.0.5735.289 Electron/25.9.4 Safari/537.36" etag="BQ83X_6X2favc5VWbjKe" version="22.1.2" type="device">
  <diagram name="Page-1" id="F_hivyQ5DFcQ6GrOG33M">
    <mxGraphModel dx="1886" dy="1896" grid="1" gridSize="10" guides="1" tooltips="1" connect="1" arrows="1" fold="1" page="1" pageScale="1" pageWidth="1169" pageHeight="827" math="0" shadow="0">
      <root>
        <mxCell id="0" />
        <mxCell id="1" parent="0" />
        <mxCell id="fCks7QzIpieRSXXq4J3l-1" value="Выполнение заказа" style="swimlane;whiteSpace=wrap;html=1;strokeWidth=2;" parent="1" vertex="1">
          <mxGeometry x="15" y="-390" width="560" height="370" as="geometry" />
        </mxCell>
        <mxCell id="fCks7QzIpieRSXXq4J3l-3" value="Заказ" style="rounded=1;whiteSpace=wrap;html=1;strokeWidth=2;" parent="fCks7QzIpieRSXXq4J3l-1" vertex="1">
          <mxGeometry x="210" y="90" width="120" height="60" as="geometry" />
        </mxCell>
        <mxCell id="fCks7QzIpieRSXXq4J3l-4" style="edgeStyle=orthogonalEdgeStyle;rounded=1;orthogonalLoop=1;jettySize=auto;html=1;exitX=0.5;exitY=0;exitDx=0;exitDy=0;entryX=0;entryY=0.5;entryDx=0;entryDy=0;" parent="fCks7QzIpieRSXXq4J3l-1" source="fCks7QzIpieRSXXq4J3l-5" target="fCks7QzIpieRSXXq4J3l-3" edge="1">
          <mxGeometry relative="1" as="geometry" />
        </mxCell>
        <mxCell id="m88xlmB97YjCkg8Xv9X8-26" value="" style="edgeStyle=orthogonalEdgeStyle;rounded=0;orthogonalLoop=1;jettySize=auto;html=1;" parent="fCks7QzIpieRSXXq4J3l-1" source="fCks7QzIpieRSXXq4J3l-5" target="fCks7QzIpieRSXXq4J3l-8" edge="1">
          <mxGeometry relative="1" as="geometry" />
        </mxCell>
        <mxCell id="fCks7QzIpieRSXXq4J3l-5" value="Клиент" style="rounded=1;whiteSpace=wrap;html=1;strokeWidth=2;" parent="fCks7QzIpieRSXXq4J3l-1" vertex="1">
          <mxGeometry x="30" y="120" width="120" height="60" as="geometry" />
        </mxCell>
        <mxCell id="fCks7QzIpieRSXXq4J3l-6" value="Воркер" style="rounded=1;whiteSpace=wrap;html=1;strokeWidth=2;" parent="fCks7QzIpieRSXXq4J3l-1" vertex="1">
          <mxGeometry x="420" y="50" width="120" height="60" as="geometry" />
        </mxCell>
        <mxCell id="fCks7QzIpieRSXXq4J3l-7" style="edgeStyle=orthogonalEdgeStyle;rounded=0;orthogonalLoop=1;jettySize=auto;html=1;exitX=1;exitY=0.5;exitDx=0;exitDy=0;" parent="fCks7QzIpieRSXXq4J3l-1" source="fCks7QzIpieRSXXq4J3l-3" target="fCks7QzIpieRSXXq4J3l-6" edge="1">
          <mxGeometry relative="1" as="geometry" />
        </mxCell>
        <mxCell id="fCks7QzIpieRSXXq4J3l-8" value="Аккаунт клиента" style="rounded=1;whiteSpace=wrap;html=1;dashed=1;" parent="fCks7QzIpieRSXXq4J3l-1" vertex="1">
          <mxGeometry x="30" y="230" width="120" height="60" as="geometry" />
        </mxCell>
        <mxCell id="fCks7QzIpieRSXXq4J3l-11" style="edgeStyle=orthogonalEdgeStyle;rounded=0;orthogonalLoop=1;jettySize=auto;html=1;exitX=0.5;exitY=0;exitDx=0;exitDy=0;entryX=0.5;entryY=1;entryDx=0;entryDy=0;" parent="fCks7QzIpieRSXXq4J3l-1" source="fCks7QzIpieRSXXq4J3l-12" target="fCks7QzIpieRSXXq4J3l-3" edge="1">
          <mxGeometry relative="1" as="geometry" />
        </mxCell>
        <mxCell id="fCks7QzIpieRSXXq4J3l-12" value="Услуга" style="rounded=1;whiteSpace=wrap;html=1;strokeWidth=2;" parent="fCks7QzIpieRSXXq4J3l-1" vertex="1">
          <mxGeometry x="210" y="180" width="120" height="60" as="geometry" />
        </mxCell>
        <mxCell id="m88xlmB97YjCkg8Xv9X8-32" value="" style="edgeStyle=orthogonalEdgeStyle;rounded=0;orthogonalLoop=1;jettySize=auto;html=1;" parent="fCks7QzIpieRSXXq4J3l-1" source="m88xlmB97YjCkg8Xv9X8-25" target="fCks7QzIpieRSXXq4J3l-12" edge="1">
          <mxGeometry relative="1" as="geometry" />
        </mxCell>
        <mxCell id="m88xlmB97YjCkg8Xv9X8-25" value="Менеджер" style="rounded=1;whiteSpace=wrap;html=1;strokeWidth=2;" parent="fCks7QzIpieRSXXq4J3l-1" vertex="1">
          <mxGeometry x="210" y="270" width="120" height="60" as="geometry" />
        </mxCell>
        <mxCell id="m88xlmB97YjCkg8Xv9X8-39" value="Результат матчинга" style="rounded=1;whiteSpace=wrap;html=1;strokeWidth=1;dashed=1;" parent="fCks7QzIpieRSXXq4J3l-1" vertex="1">
          <mxGeometry x="90" y="30" width="120" height="60" as="geometry" />
        </mxCell>
        <mxCell id="xlrGfsgEvnv0AyE19tKd-4" style="edgeStyle=orthogonalEdgeStyle;rounded=0;orthogonalLoop=1;jettySize=auto;html=1;exitX=0.5;exitY=0;exitDx=0;exitDy=0;entryX=1.008;entryY=0.4;entryDx=0;entryDy=0;entryPerimeter=0;" edge="1" parent="fCks7QzIpieRSXXq4J3l-1" source="fCks7QzIpieRSXXq4J3l-3" target="m88xlmB97YjCkg8Xv9X8-39">
          <mxGeometry relative="1" as="geometry" />
        </mxCell>
        <mxCell id="fCks7QzIpieRSXXq4J3l-14" value="Обеспечение расходниками" style="swimlane;whiteSpace=wrap;html=1;strokeWidth=2;" parent="1" vertex="1">
          <mxGeometry x="500" y="-790" width="310" height="220" as="geometry" />
        </mxCell>
        <mxCell id="fCks7QzIpieRSXXq4J3l-15" value="Материалы" style="rounded=1;whiteSpace=wrap;html=1;strokeWidth=2;" parent="fCks7QzIpieRSXXq4J3l-14" vertex="1">
          <mxGeometry x="30" y="40" width="120" height="60" as="geometry" />
        </mxCell>
        <mxCell id="fCks7QzIpieRSXXq4J3l-44" value="" style="edgeStyle=orthogonalEdgeStyle;rounded=0;orthogonalLoop=1;jettySize=auto;html=1;" parent="fCks7QzIpieRSXXq4J3l-14" source="fCks7QzIpieRSXXq4J3l-43" target="fCks7QzIpieRSXXq4J3l-15" edge="1">
          <mxGeometry relative="1" as="geometry" />
        </mxCell>
        <mxCell id="fCks7QzIpieRSXXq4J3l-43" value="Сотрудник" style="rounded=1;whiteSpace=wrap;html=1;strokeWidth=2;" parent="fCks7QzIpieRSXXq4J3l-14" vertex="1">
          <mxGeometry x="30" y="127" width="120" height="60" as="geometry" />
        </mxCell>
        <mxCell id="fCks7QzIpieRSXXq4J3l-46" value="" style="edgeStyle=orthogonalEdgeStyle;rounded=0;orthogonalLoop=1;jettySize=auto;html=1;" parent="fCks7QzIpieRSXXq4J3l-14" source="fCks7QzIpieRSXXq4J3l-45" target="fCks7QzIpieRSXXq4J3l-15" edge="1">
          <mxGeometry relative="1" as="geometry" />
        </mxCell>
        <mxCell id="fCks7QzIpieRSXXq4J3l-45" value="Заказ" style="rounded=1;whiteSpace=wrap;html=1;dashed=1;" parent="fCks7QzIpieRSXXq4J3l-14" vertex="1">
          <mxGeometry x="170" y="40" width="120" height="60" as="geometry" />
        </mxCell>
        <mxCell id="fCks7QzIpieRSXXq4J3l-17" value="Тестирование и определение характеристик" style="swimlane;whiteSpace=wrap;html=1;strokeWidth=2;" parent="1" vertex="1">
          <mxGeometry x="820" y="-710" width="340" height="270" as="geometry" />
        </mxCell>
        <mxCell id="fCks7QzIpieRSXXq4J3l-18" value="" style="edgeStyle=orthogonalEdgeStyle;rounded=0;orthogonalLoop=1;jettySize=auto;html=1;" parent="fCks7QzIpieRSXXq4J3l-17" source="fCks7QzIpieRSXXq4J3l-19" target="fCks7QzIpieRSXXq4J3l-24" edge="1">
          <mxGeometry relative="1" as="geometry" />
        </mxCell>
        <mxCell id="fCks7QzIpieRSXXq4J3l-19" value="Менеджер" style="rounded=1;whiteSpace=wrap;html=1;strokeWidth=1;dashed=1;" parent="fCks7QzIpieRSXXq4J3l-17" vertex="1">
          <mxGeometry x="200" y="145" width="120" height="60" as="geometry" />
        </mxCell>
        <mxCell id="fCks7QzIpieRSXXq4J3l-21" value="Тест воркера" style="rounded=1;whiteSpace=wrap;html=1;strokeWidth=2;" parent="fCks7QzIpieRSXXq4J3l-17" vertex="1">
          <mxGeometry x="40" y="50" width="120" height="60" as="geometry" />
        </mxCell>
        <mxCell id="m88xlmB97YjCkg8Xv9X8-36" value="" style="edgeStyle=orthogonalEdgeStyle;rounded=0;orthogonalLoop=1;jettySize=auto;html=1;" parent="fCks7QzIpieRSXXq4J3l-17" source="fCks7QzIpieRSXXq4J3l-24" target="fCks7QzIpieRSXXq4J3l-21" edge="1">
          <mxGeometry relative="1" as="geometry" />
        </mxCell>
        <mxCell id="fCks7QzIpieRSXXq4J3l-24" value="Заявка воркера" style="rounded=1;whiteSpace=wrap;html=1;strokeWidth=2;" parent="fCks7QzIpieRSXXq4J3l-17" vertex="1">
          <mxGeometry x="40" y="145" width="120" height="60" as="geometry" />
        </mxCell>
        <mxCell id="fCks7QzIpieRSXXq4J3l-27" value="Расчеты с клиентом" style="swimlane;whiteSpace=wrap;html=1;strokeWidth=2;" parent="1" vertex="1">
          <mxGeometry x="10" y="10" width="330" height="290" as="geometry" />
        </mxCell>
        <mxCell id="fCks7QzIpieRSXXq4J3l-28" style="edgeStyle=orthogonalEdgeStyle;rounded=0;orthogonalLoop=1;jettySize=auto;html=1;exitX=0.5;exitY=0;exitDx=0;exitDy=0;entryX=0.5;entryY=1;entryDx=0;entryDy=0;" parent="fCks7QzIpieRSXXq4J3l-27" edge="1">
          <mxGeometry relative="1" as="geometry">
            <mxPoint x="300" y="150" as="targetPoint" />
          </mxGeometry>
        </mxCell>
        <mxCell id="fCks7QzIpieRSXXq4J3l-29" style="edgeStyle=orthogonalEdgeStyle;rounded=0;orthogonalLoop=1;jettySize=auto;html=1;exitX=0.5;exitY=0;exitDx=0;exitDy=0;entryX=0;entryY=0.5;entryDx=0;entryDy=0;" parent="fCks7QzIpieRSXXq4J3l-27" edge="1">
          <mxGeometry relative="1" as="geometry">
            <mxPoint x="240" y="217" as="targetPoint" />
          </mxGeometry>
        </mxCell>
        <mxCell id="fCks7QzIpieRSXXq4J3l-30" style="edgeStyle=orthogonalEdgeStyle;rounded=0;orthogonalLoop=1;jettySize=auto;html=1;exitX=1;exitY=0.5;exitDx=0;exitDy=0;" parent="fCks7QzIpieRSXXq4J3l-27" edge="1">
          <mxGeometry relative="1" as="geometry">
            <mxPoint x="360" y="217" as="sourcePoint" />
          </mxGeometry>
        </mxCell>
        <mxCell id="fCks7QzIpieRSXXq4J3l-31" value="Аккаунт клиента" style="rounded=1;whiteSpace=wrap;html=1;strokeWidth=2;" parent="fCks7QzIpieRSXXq4J3l-27" vertex="1">
          <mxGeometry x="20" y="80" width="120" height="60" as="geometry" />
        </mxCell>
        <mxCell id="fCks7QzIpieRSXXq4J3l-32" style="edgeStyle=orthogonalEdgeStyle;rounded=0;orthogonalLoop=1;jettySize=auto;html=1;exitX=0.5;exitY=0;exitDx=0;exitDy=0;entryX=0.5;entryY=1;entryDx=0;entryDy=0;" parent="fCks7QzIpieRSXXq4J3l-27" edge="1">
          <mxGeometry relative="1" as="geometry">
            <mxPoint x="300" y="247" as="targetPoint" />
          </mxGeometry>
        </mxCell>
        <mxCell id="fCks7QzIpieRSXXq4J3l-33" value="Транзакция" style="rounded=1;whiteSpace=wrap;html=1;strokeWidth=2;" parent="fCks7QzIpieRSXXq4J3l-27" vertex="1">
          <mxGeometry x="20" y="170" width="120" height="60" as="geometry" />
        </mxCell>
        <mxCell id="fCks7QzIpieRSXXq4J3l-34" value="" style="edgeStyle=orthogonalEdgeStyle;rounded=0;orthogonalLoop=1;jettySize=auto;html=1;" parent="fCks7QzIpieRSXXq4J3l-27" source="fCks7QzIpieRSXXq4J3l-31" target="fCks7QzIpieRSXXq4J3l-33" edge="1">
          <mxGeometry relative="1" as="geometry" />
        </mxCell>
        <mxCell id="m88xlmB97YjCkg8Xv9X8-28" value="" style="edgeStyle=orthogonalEdgeStyle;rounded=0;orthogonalLoop=1;jettySize=auto;html=1;" parent="fCks7QzIpieRSXXq4J3l-27" source="8VoZBCtPtkcEc6Na4JY_-15" target="fCks7QzIpieRSXXq4J3l-31" edge="1">
          <mxGeometry relative="1" as="geometry" />
        </mxCell>
        <mxCell id="8VoZBCtPtkcEc6Na4JY_-15" value="Клиент" style="rounded=1;whiteSpace=wrap;html=1;strokeWidth=1;dashed=1;" parent="fCks7QzIpieRSXXq4J3l-27" vertex="1">
          <mxGeometry x="180" y="80" width="120" height="60" as="geometry" />
        </mxCell>
        <mxCell id="fCks7QzIpieRSXXq4J3l-38" value="Ставки" style="swimlane;whiteSpace=wrap;html=1;strokeWidth=2;" parent="1" vertex="1">
          <mxGeometry x="950" y="-390" width="200" height="300" as="geometry" />
        </mxCell>
        <mxCell id="fCks7QzIpieRSXXq4J3l-39" value="Ставка" style="rounded=1;whiteSpace=wrap;html=1;strokeWidth=2;" parent="fCks7QzIpieRSXXq4J3l-38" vertex="1">
          <mxGeometry x="20" y="130" width="120" height="60" as="geometry" />
        </mxCell>
        <mxCell id="fCks7QzIpieRSXXq4J3l-40" value="Менеджер" style="rounded=1;whiteSpace=wrap;html=1;dashed=1;" parent="fCks7QzIpieRSXXq4J3l-38" vertex="1">
          <mxGeometry x="20" y="220" width="120" height="60" as="geometry" />
        </mxCell>
        <mxCell id="fCks7QzIpieRSXXq4J3l-41" value="" style="edgeStyle=orthogonalEdgeStyle;rounded=0;orthogonalLoop=1;jettySize=auto;html=1;" parent="fCks7QzIpieRSXXq4J3l-38" source="fCks7QzIpieRSXXq4J3l-40" target="fCks7QzIpieRSXXq4J3l-39" edge="1">
          <mxGeometry relative="1" as="geometry" />
        </mxCell>
        <mxCell id="m88xlmB97YjCkg8Xv9X8-42" value="" style="edgeStyle=orthogonalEdgeStyle;rounded=0;orthogonalLoop=1;jettySize=auto;html=1;" parent="fCks7QzIpieRSXXq4J3l-38" source="m88xlmB97YjCkg8Xv9X8-41" target="fCks7QzIpieRSXXq4J3l-39" edge="1">
          <mxGeometry relative="1" as="geometry" />
        </mxCell>
        <mxCell id="m88xlmB97YjCkg8Xv9X8-41" value="Заказ" style="rounded=1;whiteSpace=wrap;html=1;strokeWidth=1;dashed=1;" parent="fCks7QzIpieRSXXq4J3l-38" vertex="1">
          <mxGeometry x="20" y="30" width="120" height="60" as="geometry" />
        </mxCell>
        <mxCell id="8VoZBCtPtkcEc6Na4JY_-1" value="Контроль качества" style="swimlane;whiteSpace=wrap;html=1;strokeWidth=2;" parent="1" vertex="1">
          <mxGeometry x="610" y="-390" width="320" height="320" as="geometry" />
        </mxCell>
        <mxCell id="8VoZBCtPtkcEc6Na4JY_-3" value="Менеджер" style="rounded=1;whiteSpace=wrap;html=1;strokeWidth=1;dashed=1;" parent="8VoZBCtPtkcEc6Na4JY_-1" vertex="1">
          <mxGeometry x="180" y="50" width="120" height="60" as="geometry" />
        </mxCell>
        <mxCell id="8VoZBCtPtkcEc6Na4JY_-4" value="" style="edgeStyle=orthogonalEdgeStyle;rounded=0;orthogonalLoop=1;jettySize=auto;html=1;" parent="8VoZBCtPtkcEc6Na4JY_-1" source="8VoZBCtPtkcEc6Na4JY_-5" target="8VoZBCtPtkcEc6Na4JY_-10" edge="1">
          <mxGeometry relative="1" as="geometry" />
        </mxCell>
        <mxCell id="8VoZBCtPtkcEc6Na4JY_-5" value="Контроль&lt;br&gt;качества" style="rounded=1;whiteSpace=wrap;html=1;strokeWidth=2;" parent="8VoZBCtPtkcEc6Na4JY_-1" vertex="1">
          <mxGeometry x="180" y="160" width="120" height="60" as="geometry" />
        </mxCell>
        <mxCell id="8VoZBCtPtkcEc6Na4JY_-7" style="edgeStyle=orthogonalEdgeStyle;rounded=1;orthogonalLoop=1;jettySize=auto;html=1;exitX=0.5;exitY=1;exitDx=0;exitDy=0;entryX=0.5;entryY=0;entryDx=0;entryDy=0;" parent="8VoZBCtPtkcEc6Na4JY_-1" source="8VoZBCtPtkcEc6Na4JY_-3" target="8VoZBCtPtkcEc6Na4JY_-5" edge="1">
          <mxGeometry relative="1" as="geometry" />
        </mxCell>
        <mxCell id="8VoZBCtPtkcEc6Na4JY_-10" value="Заказ" style="rounded=1;whiteSpace=wrap;html=1;dashed=1;" parent="8VoZBCtPtkcEc6Na4JY_-1" vertex="1">
          <mxGeometry x="20" y="160" width="120" height="60" as="geometry" />
        </mxCell>
        <mxCell id="R0XeLiRJAuGYRGJgg_CP-1" value="Матчинг" style="swimlane;whiteSpace=wrap;html=1;strokeWidth=2;" parent="1" vertex="1">
          <mxGeometry x="10" y="-670" width="470" height="240" as="geometry" />
        </mxCell>
        <mxCell id="R0XeLiRJAuGYRGJgg_CP-2" value="Обычный образец" style="rounded=1;whiteSpace=wrap;html=1;strokeWidth=1;dashed=1;" parent="R0XeLiRJAuGYRGJgg_CP-1" vertex="1">
          <mxGeometry x="330" y="60" width="120" height="60" as="geometry" />
        </mxCell>
        <mxCell id="R0XeLiRJAuGYRGJgg_CP-5" value="Эталонный образец" style="rounded=1;whiteSpace=wrap;html=1;strokeWidth=1;dashed=1;" parent="R0XeLiRJAuGYRGJgg_CP-1" vertex="1">
          <mxGeometry x="30" y="60" width="120" height="60" as="geometry" />
        </mxCell>
        <mxCell id="R0XeLiRJAuGYRGJgg_CP-8" value="Результат матчинга" style="rounded=1;whiteSpace=wrap;html=1;strokeWidth=2;" parent="R0XeLiRJAuGYRGJgg_CP-1" vertex="1">
          <mxGeometry x="175" y="150" width="120" height="60" as="geometry" />
        </mxCell>
        <mxCell id="m88xlmB97YjCkg8Xv9X8-16" value="" style="edgeStyle=orthogonalEdgeStyle;rounded=0;orthogonalLoop=1;jettySize=auto;html=1;" parent="R0XeLiRJAuGYRGJgg_CP-1" source="R0XeLiRJAuGYRGJgg_CP-8" target="R0XeLiRJAuGYRGJgg_CP-2" edge="1">
          <mxGeometry relative="1" as="geometry" />
        </mxCell>
        <mxCell id="m88xlmB97YjCkg8Xv9X8-18" value="" style="edgeStyle=orthogonalEdgeStyle;rounded=0;orthogonalLoop=1;jettySize=auto;html=1;" parent="R0XeLiRJAuGYRGJgg_CP-1" source="R0XeLiRJAuGYRGJgg_CP-8" target="R0XeLiRJAuGYRGJgg_CP-5" edge="1">
          <mxGeometry relative="1" as="geometry" />
        </mxCell>
        <mxCell id="xlrGfsgEvnv0AyE19tKd-2" value="" style="edgeStyle=orthogonalEdgeStyle;rounded=0;orthogonalLoop=1;jettySize=auto;html=1;startArrow=classic;startFill=1;endArrow=none;endFill=0;" edge="1" parent="R0XeLiRJAuGYRGJgg_CP-1" source="xlrGfsgEvnv0AyE19tKd-1" target="R0XeLiRJAuGYRGJgg_CP-2">
          <mxGeometry relative="1" as="geometry" />
        </mxCell>
        <mxCell id="xlrGfsgEvnv0AyE19tKd-1" value="Тест воркера" style="rounded=1;whiteSpace=wrap;html=1;strokeWidth=1;dashed=1;" vertex="1" parent="R0XeLiRJAuGYRGJgg_CP-1">
          <mxGeometry x="175" y="60" width="120" height="60" as="geometry" />
        </mxCell>
        <mxCell id="m88xlmB97YjCkg8Xv9X8-1" value="Расчеты и начисления воркеру" style="swimlane;whiteSpace=wrap;html=1;strokeWidth=2;" parent="1" vertex="1">
          <mxGeometry x="360" y="10" width="330" height="290" as="geometry" />
        </mxCell>
        <mxCell id="m88xlmB97YjCkg8Xv9X8-2" style="edgeStyle=orthogonalEdgeStyle;rounded=0;orthogonalLoop=1;jettySize=auto;html=1;exitX=0.5;exitY=0;exitDx=0;exitDy=0;entryX=0.5;entryY=1;entryDx=0;entryDy=0;" parent="m88xlmB97YjCkg8Xv9X8-1" edge="1">
          <mxGeometry relative="1" as="geometry">
            <mxPoint x="300" y="150" as="targetPoint" />
          </mxGeometry>
        </mxCell>
        <mxCell id="m88xlmB97YjCkg8Xv9X8-3" style="edgeStyle=orthogonalEdgeStyle;rounded=0;orthogonalLoop=1;jettySize=auto;html=1;exitX=0.5;exitY=0;exitDx=0;exitDy=0;entryX=0;entryY=0.5;entryDx=0;entryDy=0;" parent="m88xlmB97YjCkg8Xv9X8-1" edge="1">
          <mxGeometry relative="1" as="geometry">
            <mxPoint x="240" y="217" as="targetPoint" />
          </mxGeometry>
        </mxCell>
        <mxCell id="m88xlmB97YjCkg8Xv9X8-4" style="edgeStyle=orthogonalEdgeStyle;rounded=0;orthogonalLoop=1;jettySize=auto;html=1;exitX=1;exitY=0.5;exitDx=0;exitDy=0;" parent="m88xlmB97YjCkg8Xv9X8-1" edge="1">
          <mxGeometry relative="1" as="geometry">
            <mxPoint x="360" y="217" as="sourcePoint" />
          </mxGeometry>
        </mxCell>
        <mxCell id="m88xlmB97YjCkg8Xv9X8-5" value="Аккаунт воркера" style="rounded=1;whiteSpace=wrap;html=1;strokeWidth=2;" parent="m88xlmB97YjCkg8Xv9X8-1" vertex="1">
          <mxGeometry x="20" y="80" width="120" height="60" as="geometry" />
        </mxCell>
        <mxCell id="m88xlmB97YjCkg8Xv9X8-6" style="edgeStyle=orthogonalEdgeStyle;rounded=0;orthogonalLoop=1;jettySize=auto;html=1;exitX=0.5;exitY=0;exitDx=0;exitDy=0;entryX=0.5;entryY=1;entryDx=0;entryDy=0;" parent="m88xlmB97YjCkg8Xv9X8-1" edge="1">
          <mxGeometry relative="1" as="geometry">
            <mxPoint x="300" y="247" as="targetPoint" />
          </mxGeometry>
        </mxCell>
        <mxCell id="m88xlmB97YjCkg8Xv9X8-7" value="Транзакция" style="rounded=1;whiteSpace=wrap;html=1;strokeWidth=2;" parent="m88xlmB97YjCkg8Xv9X8-1" vertex="1">
          <mxGeometry x="20" y="170" width="120" height="60" as="geometry" />
        </mxCell>
        <mxCell id="m88xlmB97YjCkg8Xv9X8-8" value="" style="edgeStyle=orthogonalEdgeStyle;rounded=0;orthogonalLoop=1;jettySize=auto;html=1;" parent="m88xlmB97YjCkg8Xv9X8-1" source="m88xlmB97YjCkg8Xv9X8-5" target="m88xlmB97YjCkg8Xv9X8-7" edge="1">
          <mxGeometry relative="1" as="geometry" />
        </mxCell>
        <mxCell id="m88xlmB97YjCkg8Xv9X8-9" value="" style="edgeStyle=orthogonalEdgeStyle;rounded=0;orthogonalLoop=1;jettySize=auto;html=1;" parent="m88xlmB97YjCkg8Xv9X8-1" source="m88xlmB97YjCkg8Xv9X8-10" target="m88xlmB97YjCkg8Xv9X8-5" edge="1">
          <mxGeometry relative="1" as="geometry" />
        </mxCell>
        <mxCell id="m88xlmB97YjCkg8Xv9X8-10" value="Воркер" style="rounded=1;whiteSpace=wrap;html=1;dashed=1;" parent="m88xlmB97YjCkg8Xv9X8-1" vertex="1">
          <mxGeometry x="180" y="80" width="120" height="60" as="geometry" />
        </mxCell>
        <mxCell id="m88xlmB97YjCkg8Xv9X8-13" value="Master data" style="rounded=1;whiteSpace=wrap;html=1;strokeWidth=2;" parent="1" vertex="1">
          <mxGeometry x="10" y="-810" width="120" height="60" as="geometry" />
        </mxCell>
        <mxCell id="m88xlmB97YjCkg8Xv9X8-14" value="Consumed data" style="rounded=1;whiteSpace=wrap;html=1;strokeWidth=1;dashed=1;" parent="1" vertex="1">
          <mxGeometry x="10" y="-740" width="120" height="60" as="geometry" />
        </mxCell>
        <mxCell id="m88xlmB97YjCkg8Xv9X8-20" style="edgeStyle=orthogonalEdgeStyle;rounded=0;orthogonalLoop=1;jettySize=auto;html=1;exitX=0.5;exitY=0;exitDx=0;exitDy=0;entryX=1;entryY=0.5;entryDx=0;entryDy=0;strokeWidth=2;dashed=1;" parent="1" source="fCks7QzIpieRSXXq4J3l-6" target="R0XeLiRJAuGYRGJgg_CP-2" edge="1">
          <mxGeometry relative="1" as="geometry" />
        </mxCell>
        <mxCell id="m88xlmB97YjCkg8Xv9X8-21" style="edgeStyle=orthogonalEdgeStyle;rounded=0;orthogonalLoop=1;jettySize=auto;html=1;exitX=0.25;exitY=0;exitDx=0;exitDy=0;entryX=0.5;entryY=1;entryDx=0;entryDy=0;strokeWidth=2;dashed=1;" parent="1" source="fCks7QzIpieRSXXq4J3l-5" target="R0XeLiRJAuGYRGJgg_CP-5" edge="1">
          <mxGeometry relative="1" as="geometry" />
        </mxCell>
        <mxCell id="m88xlmB97YjCkg8Xv9X8-29" style="edgeStyle=orthogonalEdgeStyle;rounded=0;orthogonalLoop=1;jettySize=auto;html=1;exitX=0.5;exitY=0;exitDx=0;exitDy=0;entryX=0.5;entryY=1;entryDx=0;entryDy=0;strokeWidth=2;dashed=1;" parent="1" source="fCks7QzIpieRSXXq4J3l-31" target="fCks7QzIpieRSXXq4J3l-8" edge="1">
          <mxGeometry relative="1" as="geometry" />
        </mxCell>
        <mxCell id="m88xlmB97YjCkg8Xv9X8-30" style="edgeStyle=orthogonalEdgeStyle;rounded=0;orthogonalLoop=1;jettySize=auto;html=1;exitX=1;exitY=0.5;exitDx=0;exitDy=0;entryX=0.5;entryY=0;entryDx=0;entryDy=0;strokeWidth=2;dashed=1;" parent="1" source="fCks7QzIpieRSXXq4J3l-5" target="8VoZBCtPtkcEc6Na4JY_-15" edge="1">
          <mxGeometry relative="1" as="geometry">
            <Array as="points">
              <mxPoint x="190" y="-240" />
              <mxPoint x="190" y="60" />
              <mxPoint x="250" y="60" />
            </Array>
          </mxGeometry>
        </mxCell>
        <mxCell id="m88xlmB97YjCkg8Xv9X8-31" value="" style="edgeStyle=orthogonalEdgeStyle;rounded=0;orthogonalLoop=1;jettySize=auto;html=1;entryX=0.5;entryY=0;entryDx=0;entryDy=0;strokeWidth=2;dashed=1;" parent="1" source="fCks7QzIpieRSXXq4J3l-6" target="m88xlmB97YjCkg8Xv9X8-10" edge="1">
          <mxGeometry relative="1" as="geometry">
            <mxPoint x="495" y="-240" as="targetPoint" />
          </mxGeometry>
        </mxCell>
        <mxCell id="m88xlmB97YjCkg8Xv9X8-40" style="edgeStyle=orthogonalEdgeStyle;rounded=0;orthogonalLoop=1;jettySize=auto;html=1;exitX=0.5;exitY=1;exitDx=0;exitDy=0;entryX=0.5;entryY=0;entryDx=0;entryDy=0;strokeWidth=2;dashed=1;" parent="1" source="R0XeLiRJAuGYRGJgg_CP-8" target="m88xlmB97YjCkg8Xv9X8-39" edge="1">
          <mxGeometry relative="1" as="geometry" />
        </mxCell>
        <mxCell id="m88xlmB97YjCkg8Xv9X8-43" style="edgeStyle=orthogonalEdgeStyle;rounded=0;orthogonalLoop=1;jettySize=auto;html=1;exitX=0.5;exitY=0;exitDx=0;exitDy=0;entryX=0.5;entryY=0;entryDx=0;entryDy=0;strokeWidth=2;dashed=1;" parent="1" source="fCks7QzIpieRSXXq4J3l-3" target="m88xlmB97YjCkg8Xv9X8-41" edge="1">
          <mxGeometry relative="1" as="geometry">
            <Array as="points">
              <mxPoint x="285" y="-400" />
              <mxPoint x="1030" y="-400" />
            </Array>
          </mxGeometry>
        </mxCell>
        <mxCell id="m88xlmB97YjCkg8Xv9X8-44" style="edgeStyle=orthogonalEdgeStyle;rounded=0;orthogonalLoop=1;jettySize=auto;html=1;exitX=1;exitY=0.75;exitDx=0;exitDy=0;jumpStyle=arc;strokeWidth=2;dashed=1;" parent="1" source="fCks7QzIpieRSXXq4J3l-3" target="8VoZBCtPtkcEc6Na4JY_-10" edge="1">
          <mxGeometry relative="1" as="geometry" />
        </mxCell>
        <mxCell id="m88xlmB97YjCkg8Xv9X8-45" style="edgeStyle=orthogonalEdgeStyle;rounded=0;orthogonalLoop=1;jettySize=auto;html=1;exitX=0.5;exitY=1;exitDx=0;exitDy=0;entryX=0.5;entryY=1;entryDx=0;entryDy=0;strokeWidth=2;dashed=1;" parent="1" source="m88xlmB97YjCkg8Xv9X8-25" target="fCks7QzIpieRSXXq4J3l-40" edge="1">
          <mxGeometry relative="1" as="geometry" />
        </mxCell>
        <mxCell id="m88xlmB97YjCkg8Xv9X8-46" style="edgeStyle=orthogonalEdgeStyle;rounded=0;orthogonalLoop=1;jettySize=auto;html=1;exitX=0.5;exitY=1;exitDx=0;exitDy=0;entryX=1;entryY=0.5;entryDx=0;entryDy=0;jumpStyle=arc;strokeWidth=2;dashed=1;" parent="1" source="m88xlmB97YjCkg8Xv9X8-25" target="fCks7QzIpieRSXXq4J3l-19" edge="1">
          <mxGeometry relative="1" as="geometry" />
        </mxCell>
        <mxCell id="m88xlmB97YjCkg8Xv9X8-47" style="edgeStyle=orthogonalEdgeStyle;rounded=0;orthogonalLoop=1;jettySize=auto;html=1;exitX=0.5;exitY=0;exitDx=0;exitDy=0;jumpStyle=arc;strokeWidth=2;dashed=1;" parent="1" source="fCks7QzIpieRSXXq4J3l-3" target="fCks7QzIpieRSXXq4J3l-45" edge="1">
          <mxGeometry relative="1" as="geometry">
            <Array as="points">
              <mxPoint x="285" y="-410" />
              <mxPoint x="730" y="-410" />
            </Array>
          </mxGeometry>
        </mxCell>
        <mxCell id="m88xlmB97YjCkg8Xv9X8-48" style="edgeStyle=orthogonalEdgeStyle;rounded=0;orthogonalLoop=1;jettySize=auto;html=1;exitX=1;exitY=0.5;exitDx=0;exitDy=0;entryX=0;entryY=0.5;entryDx=0;entryDy=0;jumpStyle=arc;strokeWidth=2;dashed=1;" parent="1" source="m88xlmB97YjCkg8Xv9X8-25" target="8VoZBCtPtkcEc6Na4JY_-3" edge="1">
          <mxGeometry relative="1" as="geometry">
            <Array as="points">
              <mxPoint x="590" y="-90" />
              <mxPoint x="590" y="-310" />
            </Array>
          </mxGeometry>
        </mxCell>
        <mxCell id="xlrGfsgEvnv0AyE19tKd-3" style="edgeStyle=orthogonalEdgeStyle;rounded=0;orthogonalLoop=1;jettySize=auto;html=1;exitX=0.5;exitY=0;exitDx=0;exitDy=0;entryX=0.5;entryY=0;entryDx=0;entryDy=0;strokeWidth=2;dashed=1;" edge="1" parent="1" source="fCks7QzIpieRSXXq4J3l-21" target="xlrGfsgEvnv0AyE19tKd-1">
          <mxGeometry relative="1" as="geometry">
            <Array as="points">
              <mxPoint x="920" y="-810" />
              <mxPoint x="245" y="-810" />
            </Array>
          </mxGeometry>
        </mxCell>
      </root>
    </mxGraphModel>
  </diagram>
</mxfile>
